<?xml version="1.0" standalone="no"?>
<!DOCTYPE svg PUBLIC "-//W3C//DTD SVG 20010904//EN"
 "http://www.w3.org/TR/2001/REC-SVG-20010904/DTD/svg10.dtd">
<svg version="1.0" xmlns="http://www.w3.org/2000/svg"
 width="225.000000pt" height="225.000000pt" viewBox="0 0 225.000000 225.000000"
 preserveAspectRatio="xMidYMid meet">
<metadata>
Created by potrace 1.15, written by Peter Selinger 2001-2017
</metadata>
<g transform="translate(0.000000,225.000000) scale(0.100000,-0.100000)"
fill="#000000" stroke="none">
<path d="M0 1125 l0 -1125 1125 0 1125 0 0 1125 0 1125 -1125 0 -1125 0 0
-1125z m1556 685 c113 -39 173 -114 174 -217 0 -79 -57 -179 -215 -376 -180
-225 -185 -244 -53 -233 178 15 391 71 623 165 80 32 145 56 145 52 0 -22
-378 -206 -560 -274 -221 -82 -389 -100 -444 -48 -62 58 -37 140 90 290 251
298 294 360 294 423 0 52 -47 88 -167 127 -105 36 -146 32 -93 -7 33 -25 32
-42 -2 -42 -71 0 -598 -145 -612 -169 -3 -4 0 -22 6 -39 12 -31 11 -34 -36
-81 l-49 -50 37 -7 c89 -16 250 15 310 61 16 12 17 17 6 30 -19 23 -6 29 27
11 47 -24 71 -96 33 -96 -13 0 -20 7 -20 20 0 19 -1 19 -38 -5 -72 -48 -148
-68 -257 -68 -55 0 -112 5 -127 11 l-28 12 0 -64 c0 -59 -2 -64 -24 -70 -13
-3 -50 -25 -83 -50 -94 -69 -108 -136 -36 -172 57 -28 291 -26 428 4 55 12
111 24 125 27 52 11 -164 -86 -244 -109 -236 -69 -429 -52 -509 44 -34 39 -50
101 -42 154 22 138 195 368 380 504 169 124 439 233 660 266 70 10 241 -3 301
-24z m-1116 -1252 l50 -103 0 103 0 102 30 0 30 0 0 -105 0 -105 -65 0 c-54 0
-66 3 -75 20 -8 16 -21 20 -60 20 -40 0 -50 -4 -55 -20 -5 -15 -15 -20 -41
-20 -19 0 -34 2 -34 5 0 3 23 50 50 105 49 98 51 100 86 100 35 0 36 -1 84
-102z m280 60 c0 -33 3 -39 12 -30 19 19 76 14 98 -8 22 -22 26 -70 9 -101
-16 -31 -56 -42 -90 -25 -16 8 -29 10 -29 5 0 -5 -13 -9 -30 -9 l-30 0 0 105
0 105 30 0 c29 0 30 -2 30 -42z m400 0 c0 -33 3 -39 12 -30 19 19 76 14 98 -8
22 -22 26 -70 9 -101 -16 -31 -56 -42 -90 -25 -16 8 -29 10 -29 5 0 -5 -13 -9
-30 -9 l-30 0 0 105 0 105 30 0 c29 0 30 -2 30 -42z m659 -23 c31 -15 41 -33
41 -70 0 -38 -11 -57 -44 -70 -53 -23 -105 12 -105 70 0 42 29 74 77 84 2 1
16 -6 31 -14z m-764 -9 c13 -10 20 -30 23 -75 l4 -61 -53 0 c-30 0 -65 -1 -78
-1 -13 -1 -30 6 -39 15 -22 22 -5 68 28 77 l25 7 -27 1 c-32 1 -34 7 -11 33
20 22 100 25 128 4z m400 0 c13 -10 20 -30 23 -75 l4 -61 -53 0 c-30 0 -65 -1
-78 -1 -13 -1 -30 6 -39 15 -22 22 -5 68 28 77 l25 7 -27 1 c-32 1 -34 7 -11
33 20 22 100 25 128 4z m531 3 c8 -7 14 -7 19 1 8 14 48 13 63 -2 18 -18 16
-138 -3 -138 -10 0 -15 15 -17 58 -3 49 -6 57 -23 57 -17 0 -20 -8 -23 -57 -2
-42 -7 -58 -17 -58 -10 0 -15 16 -17 58 -3 49 -6 57 -23 57 -17 0 -20 -8 -23
-57 -2 -43 -7 -58 -17 -58 -12 0 -15 16 -15 73 l0 73 42 1 c23 1 47 -2 54 -8z"/>
</g>
</svg>
